<svg width="188" height="55" viewBox="0 0 188 55" fill="none" xmlns="http://www.w3.org/2000/svg">
<path fill-rule="evenodd" clip-rule="evenodd" d="M63.3806 28.541C62.8521 28.1277 62.117 28.1552 61.6158 28.1858L51.6802 28.8379C47.4458 22.5037 42.3308 19.6321 35.6573 16.7604C38.5399 10.9864 33.5401 -2.03699 30.2777 0.271149C30.0712 0.390545 29.9557 0.568118 29.8646 0.773241C26.3379 0.093583 22.866 2.10498 21.457 5.65943C20.2207 8.65053 19.3094 7.40758 19.3397 8.2342C19.3701 8.8863 20.3968 8.26481 21.8396 9.53538C21.7515 11.6968 22.9575 13.9164 24.8681 15.043L27.0733 17.5902C27.0429 17.6208 27.0429 17.6483 27.0429 17.7096C22.0461 20.0486 16.9883 22.9202 12.0193 25.5839C12.8729 17.2934 15.9895 16.5246 13.3437 16.849C13.933 16.0193 15.7828 15.7254 15.7556 14.1242C15.7556 13.7997 15.6097 13.4721 15.3424 13.3252C17.0465 12.7619 15.1359 9.21054 12.8152 10.6311C11.8158 9.12174 9.87484 13.0007 9.69863 16.1969C8.96354 15.9612 8.93316 16.4633 8.61121 17.0266C8.31656 17.5899 7.90649 18.1502 7.58148 18.7135C3.99408 24.959 0.701327 31.7676 0.0847519 39.0509C-1.09078 53.174 10.2 57.5826 19.194 48.5233C19.3398 49.1448 20.3118 53.0819 20.7219 53.2901C23.6045 54.7106 27.2193 54.8882 30.2477 53.7921C30.3662 53.7615 30.4239 53.6727 30.4816 53.584C32.7173 55.7148 32.2738 54.8575 34.479 54.6799C35.8308 54.5606 37.067 54.3248 38.4188 54.1166L59.4114 50.654C61.4709 50.3877 61.5287 48.8784 61.7352 47.2496L63.9404 30.9069C64.0589 30.0496 64.0589 29.1006 63.3815 28.5373L63.3806 28.541ZM29.5386 11.1057C29.6267 10.9588 29.7725 10.87 29.9213 10.87C30.304 12.6457 32.8313 13.3284 34.0373 11.8773C35.8294 9.68521 33.3022 7.05237 31.0665 8.29532C30.3618 8.65045 29.9487 9.39131 29.8606 10.1323C29.5386 10.1629 29.2439 10.2792 29.0374 10.518C27.1268 8.95052 24.3626 10.8425 25.1554 13.0652C25.7446 14.6939 28.0957 15.196 29.2136 13.8336C29.8029 13.1234 30.0672 11.9967 29.5356 11.1089L29.5386 11.1057ZM28.6577 13.3253C27.8922 14.2438 26.2762 13.8886 25.8935 12.7926C25.2768 11.1333 27.5702 9.92088 28.7154 11.2251C29.2743 11.8772 29.0981 12.7926 28.6577 13.3284L28.6577 13.3253ZM31.4219 8.94432C32.9802 8.11465 34.745 9.83215 33.451 11.3721C32.0112 13.1478 29.1589 10.2179 31.4219 8.94432ZM50.416 41.4487C47.9162 43.1968 46.7406 38.1912 49.2101 38.1912C49.4167 38.1912 49.6809 38.2494 49.8875 38.427C48.6816 39.1679 49.7417 40.8548 50.8565 40.2026C51.1785 40.6772 50.7684 41.2099 50.416 41.4456L50.416 41.4487ZM16.9574 31.0272C16.9878 30.6414 17.574 30.672 17.5467 31.0578C17.5467 31.0884 16.8419 40.2057 19.1353 47.1614C19.2538 47.5166 18.6949 47.7248 18.5764 47.339C16.2527 40.2945 16.9605 31.0582 16.9605 31.0277L16.9574 31.0272ZM32.5673 52.7856L25.4806 47.4555L32.8012 46.7758L32.5673 52.7856ZM25.9515 19.0664C26.3919 18.8582 26.8051 18.6531 27.1877 18.4449C28.0109 20.9033 29.2472 23.2423 30.8024 25.2844C29.3323 25.964 27.9198 26.9437 26.6865 28.0979C25.8937 25.168 25.6294 22.0575 25.9514 19.0691L25.9515 19.0664ZM31.9476 25.4007C33.4178 23.7413 36.0636 19.9542 35.8297 17.6459C36.3309 17.8541 36.8291 18.0898 37.3303 18.3255C37.6249 21.286 37.3606 24.0996 36.6833 26.9985C36.5374 27.5893 36.5071 27.4424 34.9488 26.7321C33.9494 26.2882 32.95 25.8443 31.9507 25.4004L31.9476 25.4007ZM35.0672 17.6764C35.3619 19.6603 32.6858 23.4198 31.4525 24.8404H31.4222C29.9216 22.8871 28.7461 20.6675 27.9533 18.3285C30.4532 19.9879 33.2173 20.1042 35.0672 17.6764ZM12.0458 11.3116C12.0458 11.2809 12.1035 11.2228 12.1339 11.1922C11.9 12.3157 11.4291 12.9985 11.9273 13.176C12.9267 13.5311 12.1339 10.837 14.0445 11.1034C15.2808 11.2809 15.457 12.9985 14.9254 12.5239C13.0725 10.837 11.7785 14.4496 13.8683 14.6272C14.4576 14.6578 14.6611 14.3608 14.9557 14.0638C15.2777 15.0986 12.957 15.5425 12.4559 16.8773C11.7511 16.8773 11.0738 16.7304 10.3964 16.5222C10.4845 14.569 11.0434 12.7321 12.0428 11.3115L12.0458 11.3116ZM14.7492 13.326C14.4273 13.473 14.0445 14.1833 13.6618 13.7118C13.3398 13.326 13.7803 12.4994 14.3969 13.0597C14.485 13.1484 14.5731 13.2372 14.7492 13.326ZM9.51547 16.9661C10.691 17.5294 12.0154 17.7346 13.3094 17.6182C13.1029 18.004 12.9267 18.4479 12.7505 18.9194C11.8696 18.9194 9.92858 18.1785 9.04466 17.707C9.19046 17.4713 9.33929 17.2049 9.51547 16.9661ZM25.508 48.4351L32.3882 53.5877C32.4185 53.8234 32.4185 54.0009 32.4185 54.1204C30.0371 52.3141 27.7133 50.419 25.508 48.4351ZM63.1985 30.8189L60.9628 47.3387C60.7563 49.0255 60.6409 49.7358 59.3165 49.9134L33.2965 54.0588L34.1501 32.8608C34.2382 31.1126 34.6209 30.7575 36.2976 30.6412L61.6706 28.9543C62.9647 28.8655 63.4051 29.132 63.1985 30.8189ZM25.4536 14.5686C24.7489 13.6502 24.3965 11.5194 24.3965 10.3958C27.2184 9.47735 30.3046 8.26497 31.3951 5.30452C32.8349 6.84443 34.2474 8.44257 35.5687 10.0713C35.7753 11.8469 35.8907 13.4451 35.5383 14.985C34.6847 18.3588 31.6563 19.96 28.4821 17.7985C27.3065 16.9688 26.3648 15.8146 25.4536 14.5716L25.4536 14.5686Z" fill="black"/>
<path d="M71.2642 24.4545H75.0568L79.0625 34.2273H79.233L83.2386 24.4545H87.0312V39H84.0483V29.5327H83.9276L80.1634 38.929H78.1321L74.3679 29.4972H74.2472V39H71.2642V24.4545ZM94.4798 39.2131C93.3576 39.2131 92.3917 38.9858 91.582 38.5312C90.7771 38.072 90.1568 37.4233 89.7212 36.5852C89.2856 35.7424 89.0678 34.7457 89.0678 33.5952C89.0678 32.473 89.2856 31.4882 89.7212 30.6406C90.1568 29.7931 90.77 29.1326 91.5607 28.6591C92.3562 28.1856 93.2889 27.9489 94.359 27.9489C95.0787 27.9489 95.7487 28.0649 96.369 28.2969C96.994 28.5241 97.5385 28.8674 98.0025 29.3267C98.4712 29.786 98.8358 30.3636 99.0962 31.0597C99.3567 31.7509 99.4869 32.5606 99.4869 33.4886V34.3196H90.2752V32.4446H96.6388C96.6388 32.009 96.5442 31.6231 96.3548 31.2869C96.1654 30.9508 95.9026 30.688 95.5664 30.4986C95.235 30.3045 94.8491 30.2074 94.4087 30.2074C93.9495 30.2074 93.5423 30.3139 93.1871 30.527C92.8368 30.7353 92.5621 31.017 92.3633 31.3722C92.1644 31.7225 92.0626 32.1132 92.0579 32.544V34.3267C92.0579 34.8665 92.1573 35.3329 92.3562 35.7259C92.5598 36.1188 92.8462 36.4219 93.2156 36.6349C93.5849 36.848 94.0228 36.9545 94.5295 36.9545C94.8656 36.9545 95.1734 36.9072 95.4528 36.8125C95.7321 36.7178 95.9712 36.5758 96.1701 36.3864C96.369 36.197 96.5205 35.965 96.6246 35.6903L99.4229 35.875C99.2809 36.5473 98.9897 37.1345 98.5494 37.6364C98.1138 38.1335 97.5503 38.5218 96.859 38.8011C96.1725 39.0758 95.3794 39.2131 94.4798 39.2131ZM104.487 32.6932V39H101.461V28.0909H104.345V30.0156H104.473C104.714 29.3812 105.119 28.8793 105.687 28.5099C106.255 28.1359 106.944 27.9489 107.754 27.9489C108.511 27.9489 109.172 28.1146 109.735 28.446C110.299 28.7775 110.737 29.2509 111.049 29.8665C111.362 30.4773 111.518 31.2064 111.518 32.054V39H108.493V32.5938C108.497 31.9261 108.327 31.4053 107.981 31.0312C107.636 30.6525 107.16 30.4631 106.554 30.4631C106.146 30.4631 105.787 30.5507 105.474 30.7259C105.166 30.901 104.925 31.1567 104.75 31.4929C104.579 31.8243 104.492 32.2244 104.487 32.6932ZM119.705 28.0909V30.3636H113.136V28.0909H119.705ZM114.627 25.4773H117.653V35.6477C117.653 35.9271 117.695 36.1449 117.781 36.3011C117.866 36.4527 117.984 36.5592 118.136 36.6207C118.292 36.6823 118.472 36.7131 118.675 36.7131C118.817 36.7131 118.96 36.7012 119.102 36.6776C119.244 36.6491 119.353 36.6278 119.428 36.6136L119.904 38.8651C119.753 38.9124 119.54 38.9669 119.265 39.0284C118.99 39.0947 118.656 39.1349 118.263 39.1491C117.534 39.1776 116.895 39.0805 116.346 38.858C115.801 38.6354 115.378 38.2898 115.075 37.821C114.772 37.3523 114.622 36.7604 114.627 36.0455V25.4773ZM126.488 39.2131C125.385 39.2131 124.431 38.9787 123.626 38.5099C122.826 38.0365 122.208 37.3783 121.772 36.5355C121.336 35.688 121.119 34.7055 121.119 33.5881C121.119 32.4612 121.336 31.4763 121.772 30.6335C122.208 29.786 122.826 29.1278 123.626 28.6591C124.431 28.1856 125.385 27.9489 126.488 27.9489C127.591 27.9489 128.543 28.1856 129.343 28.6591C130.148 29.1278 130.768 29.786 131.204 30.6335C131.639 31.4763 131.857 32.4612 131.857 33.5881C131.857 34.7055 131.639 35.688 131.204 36.5355C130.768 37.3783 130.148 38.0365 129.343 38.5099C128.543 38.9787 127.591 39.2131 126.488 39.2131ZM126.502 36.8693C127.004 36.8693 127.423 36.7273 127.759 36.4432C128.095 36.1544 128.349 35.7614 128.519 35.2642C128.694 34.767 128.782 34.2012 128.782 33.5668C128.782 32.9323 128.694 32.3665 128.519 31.8693C128.349 31.3722 128.095 30.9792 127.759 30.6903C127.423 30.4015 127.004 30.2571 126.502 30.2571C125.996 30.2571 125.569 30.4015 125.224 30.6903C124.883 30.9792 124.625 31.3722 124.45 31.8693C124.279 32.3665 124.194 32.9323 124.194 33.5668C124.194 34.2012 124.279 34.767 124.45 35.2642C124.625 35.7614 124.883 36.1544 125.224 36.4432C125.569 36.7273 125.996 36.8693 126.502 36.8693ZM133.825 39V28.0909H136.758V29.9943H136.871C137.07 29.3172 137.404 28.8059 137.873 28.4602C138.342 28.1098 138.881 27.9347 139.492 27.9347C139.644 27.9347 139.807 27.9441 139.982 27.9631C140.157 27.982 140.311 28.008 140.444 28.0412V30.7259C140.302 30.6832 140.105 30.6454 139.854 30.6122C139.603 30.5791 139.374 30.5625 139.165 30.5625C138.72 30.5625 138.323 30.6596 137.972 30.8537C137.627 31.0431 137.352 31.3082 137.148 31.6491C136.95 31.9901 136.85 32.383 136.85 32.8281V39H133.825Z" fill="black"/>
<path d="M155.431 31.7273C155.431 33.3134 155.131 34.6629 154.529 35.7756C153.933 36.8883 153.118 37.7382 152.086 38.3253C151.059 38.9077 149.904 39.1989 148.62 39.1989C147.328 39.1989 146.168 38.9053 145.14 38.3182C144.113 37.7311 143.301 36.8812 142.704 35.7685C142.108 34.6558 141.809 33.3087 141.809 31.7273C141.809 30.1411 142.108 28.7917 142.704 27.679C143.301 26.5663 144.113 25.7187 145.14 25.1364C146.168 24.5492 147.328 24.2557 148.62 24.2557C149.904 24.2557 151.059 24.5492 152.086 25.1364C153.118 25.7187 153.933 26.5663 154.529 27.679C155.131 28.7917 155.431 30.1411 155.431 31.7273ZM152.314 31.7273C152.314 30.6998 152.16 29.8333 151.852 29.1278C151.549 28.4223 151.12 27.8873 150.566 27.5227C150.012 27.1581 149.364 26.9759 148.62 26.9759C147.877 26.9759 147.228 27.1581 146.674 27.5227C146.12 27.8873 145.69 28.4223 145.382 29.1278C145.079 29.8333 144.927 30.6998 144.927 31.7273C144.927 32.7547 145.079 33.6212 145.382 34.3267C145.69 35.0322 146.12 35.5672 146.674 35.9318C147.228 36.2964 147.877 36.4787 148.62 36.4787C149.364 36.4787 150.012 36.2964 150.566 35.9318C151.12 35.5672 151.549 35.0322 151.852 34.3267C152.16 33.6212 152.314 32.7547 152.314 31.7273ZM160.678 32.6932V39H157.653V28.0909H160.536V30.0156H160.664C160.906 29.3812 161.31 28.8793 161.879 28.5099C162.447 28.1359 163.136 27.9489 163.945 27.9489C164.703 27.9489 165.363 28.1146 165.927 28.446C166.49 28.7775 166.928 29.2509 167.241 29.8665C167.553 30.4773 167.71 31.2064 167.71 32.054V39H164.684V32.5938C164.689 31.9261 164.518 31.4053 164.173 31.0312C163.827 30.6525 163.351 30.4631 162.745 30.4631C162.338 30.4631 161.978 30.5507 161.665 30.7259C161.358 30.901 161.116 31.1567 160.941 31.4929C160.771 31.8243 160.683 32.2244 160.678 32.6932ZM175.066 39.2131C173.944 39.2131 172.978 38.9858 172.168 38.5312C171.363 38.072 170.743 37.4233 170.307 36.5852C169.872 35.7424 169.654 34.7457 169.654 33.5952C169.654 32.473 169.872 31.4882 170.307 30.6406C170.743 29.7931 171.356 29.1326 172.147 28.6591C172.942 28.1856 173.875 27.9489 174.945 27.9489C175.665 27.9489 176.335 28.0649 176.955 28.2969C177.58 28.5241 178.124 28.8674 178.588 29.3267C179.057 29.786 179.422 30.3636 179.682 31.0597C179.943 31.7509 180.073 32.5606 180.073 33.4886V34.3196H170.861V32.4446H177.225C177.225 32.009 177.13 31.6231 176.941 31.2869C176.751 30.9508 176.489 30.688 176.152 30.4986C175.821 30.3045 175.435 30.2074 174.995 30.2074C174.535 30.2074 174.128 30.3139 173.773 30.527C173.423 30.7353 173.148 31.017 172.949 31.3722C172.75 31.7225 172.649 32.1132 172.644 32.544V34.3267C172.644 34.8665 172.743 35.3329 172.942 35.7259C173.146 36.1188 173.432 36.4219 173.801 36.6349C174.171 36.848 174.609 36.9545 175.115 36.9545C175.452 36.9545 175.759 36.9072 176.039 36.8125C176.318 36.7178 176.557 36.5758 176.756 36.3864C176.955 36.197 177.106 35.965 177.211 35.6903L180.009 35.875C179.867 36.5473 179.576 37.1345 179.135 37.6364C178.7 38.1335 178.136 38.5218 177.445 38.8011C176.758 39.0758 175.965 39.2131 175.066 39.2131Z" fill="#0067FF"/>
</svg>
